<svg width="443" height="38" viewBox="0 0 443 38" fill="none" xmlns="http://www.w3.org/2000/svg">
<path d="M42.512 0.927997C46.352 0.927997 49.28 2.08 51.296 4.384C53.36 6.64 54.392 10.312 54.392 15.4V33.112C54.392 34.504 53.96 35.584 53.096 36.352C52.28 37.072 51.2 37.432 49.856 37.432C48.56 37.432 47.48 37.072 46.616 36.352C45.8 35.584 45.392 34.504 45.392 33.112V15.4C45.392 12.76 44.912 10.888 43.952 9.784C43.04 8.632 41.624 8.056 39.704 8.056C37.352 8.056 35.48 8.872 34.088 10.504C32.696 12.088 32 14.272 32 17.056V33.112C32 34.504 31.568 35.584 30.704 36.352C29.888 37.072 28.832 37.432 27.536 37.432C26.24 37.432 25.16 37.072 24.296 36.352C23.432 35.584 23 34.504 23 33.112V15.4C23 12.76 22.52 10.888 21.56 9.784C20.648 8.632 19.232 8.056 17.312 8.056C14.96 8.056 13.088 8.872 11.696 10.504C10.352 12.088 9.68 14.272 9.68 17.056V33.112C9.68 34.504 9.248 35.584 8.384 36.352C7.52 37.072 6.44 37.432 5.144 37.432C3.848 37.432 2.768 37.072 1.904 36.352C1.088 35.584 0.68 34.504 0.68 33.112V5.248C0.68 3.904 1.112 2.872 1.976 2.152C2.84 1.432 3.92 1.072 5.216 1.072C6.464 1.072 7.472 1.432 8.24 2.152C9.056 2.824 9.464 3.808 9.464 5.104V6.832C10.568 4.912 12.032 3.448 13.856 2.44C15.728 1.432 17.864 0.927997 20.264 0.927997C25.544 0.927997 29.072 3.136 30.848 7.552C31.904 5.536 33.464 3.928 35.528 2.728C37.592 1.528 39.92 0.927997 42.512 0.927997ZM91.4034 27.352C92.2194 27.352 92.8674 27.664 93.3474 28.288C93.8754 28.912 94.1394 29.752 94.1394 30.808C94.1394 32.296 93.2514 33.544 91.4754 34.552C89.8434 35.464 87.9954 36.208 85.9314 36.784C83.8674 37.312 81.8994 37.576 80.0274 37.576C74.3634 37.576 69.8754 35.944 66.5634 32.68C63.2514 29.416 61.5954 24.952 61.5954 19.288C61.5954 15.688 62.3154 12.496 63.7554 9.712C65.1954 6.928 67.2114 4.768 69.8034 3.232C72.4434 1.696 75.4194 0.927997 78.7314 0.927997C81.8994 0.927997 84.6594 1.624 87.0114 3.016C89.3634 4.408 91.1874 6.376 92.4834 8.92C93.7794 11.464 94.4274 14.464 94.4274 17.92C94.4274 19.984 93.5154 21.016 91.6914 21.016H70.4514C70.7394 24.328 71.6754 26.776 73.2594 28.36C74.8434 29.896 77.1474 30.664 80.1714 30.664C81.7074 30.664 83.0514 30.472 84.2034 30.088C85.4034 29.704 86.7474 29.176 88.2354 28.504C89.6754 27.736 90.7314 27.352 91.4034 27.352ZM78.9474 7.264C76.4994 7.264 74.5314 8.032 73.0434 9.568C71.6034 11.104 70.7394 13.312 70.4514 16.192H86.7234C86.6274 13.264 85.9074 11.056 84.5634 9.568C83.2194 8.032 81.3474 7.264 78.9474 7.264ZM143.621 0.927997C147.461 0.927997 150.389 2.08 152.405 4.384C154.469 6.64 155.501 10.312 155.501 15.4V33.112C155.501 34.504 155.069 35.584 154.205 36.352C153.389 37.072 152.309 37.432 150.965 37.432C149.669 37.432 148.589 37.072 147.725 36.352C146.909 35.584 146.501 34.504 146.501 33.112V15.4C146.501 12.76 146.021 10.888 145.061 9.784C144.149 8.632 142.733 8.056 140.813 8.056C138.461 8.056 136.589 8.872 135.197 10.504C133.805 12.088 133.109 14.272 133.109 17.056V33.112C133.109 34.504 132.677 35.584 131.813 36.352C130.997 37.072 129.941 37.432 128.645 37.432C127.349 37.432 126.269 37.072 125.405 36.352C124.541 35.584 124.109 34.504 124.109 33.112V15.4C124.109 12.76 123.629 10.888 122.669 9.784C121.757 8.632 120.341 8.056 118.421 8.056C116.069 8.056 114.197 8.872 112.805 10.504C111.461 12.088 110.789 14.272 110.789 17.056V33.112C110.789 34.504 110.357 35.584 109.493 36.352C108.629 37.072 107.549 37.432 106.253 37.432C104.957 37.432 103.877 37.072 103.013 36.352C102.197 35.584 101.789 34.504 101.789 33.112V5.248C101.789 3.904 102.221 2.872 103.085 2.152C103.949 1.432 105.029 1.072 106.325 1.072C107.573 1.072 108.581 1.432 109.349 2.152C110.165 2.824 110.573 3.808 110.573 5.104V6.832C111.677 4.912 113.141 3.448 114.965 2.44C116.837 1.432 118.973 0.927997 121.373 0.927997C126.653 0.927997 130.181 3.136 131.957 7.552C133.013 5.536 134.573 3.928 136.637 2.728C138.701 1.528 141.029 0.927997 143.621 0.927997ZM192.513 27.352C193.329 27.352 193.977 27.664 194.457 28.288C194.985 28.912 195.249 29.752 195.249 30.808C195.249 32.296 194.361 33.544 192.585 34.552C190.953 35.464 189.105 36.208 187.041 36.784C184.977 37.312 183.009 37.576 181.137 37.576C175.473 37.576 170.985 35.944 167.673 32.68C164.361 29.416 162.705 24.952 162.705 19.288C162.705 15.688 163.425 12.496 164.865 9.712C166.305 6.928 168.321 4.768 170.913 3.232C173.553 1.696 176.529 0.927997 179.841 0.927997C183.009 0.927997 185.769 1.624 188.121 3.016C190.473 4.408 192.297 6.376 193.593 8.92C194.889 11.464 195.537 14.464 195.537 17.92C195.537 19.984 194.625 21.016 192.801 21.016H171.561C171.849 24.328 172.785 26.776 174.369 28.36C175.953 29.896 178.257 30.664 181.281 30.664C182.817 30.664 184.161 30.472 185.313 30.088C186.513 29.704 187.857 29.176 189.345 28.504C190.785 27.736 191.841 27.352 192.513 27.352ZM180.057 7.264C177.609 7.264 175.641 8.032 174.153 9.568C172.713 11.104 171.849 13.312 171.561 16.192H187.833C187.737 13.264 187.017 11.056 185.673 9.568C184.329 8.032 182.457 7.264 180.057 7.264ZM215.643 37.576C210.411 37.576 206.187 36.544 202.971 34.48C201.435 33.568 200.667 32.272 200.667 30.592C200.667 29.632 200.931 28.864 201.459 28.288C201.987 27.664 202.635 27.352 203.403 27.352C204.219 27.352 205.347 27.736 206.787 28.504C208.323 29.224 209.715 29.776 210.963 30.16C212.259 30.544 213.891 30.736 215.859 30.736C217.875 30.736 219.435 30.4 220.539 29.728C221.691 29.056 222.267 28.12 222.267 26.92C222.267 26.104 222.027 25.456 221.547 24.976C221.115 24.496 220.299 24.064 219.099 23.68C217.947 23.248 216.171 22.768 213.771 22.24C209.499 21.376 206.427 20.152 204.555 18.568C202.731 16.984 201.819 14.8 201.819 12.016C201.819 9.904 202.443 8.008 203.691 6.328C204.939 4.6 206.643 3.28 208.803 2.368C211.011 1.408 213.507 0.927997 216.291 0.927997C218.307 0.927997 220.251 1.192 222.123 1.72C223.995 2.2 225.675 2.92 227.163 3.88C228.699 4.84 229.467 6.112 229.467 7.696C229.467 8.656 229.203 9.472 228.675 10.144C228.147 10.768 227.499 11.08 226.731 11.08C226.203 11.08 225.675 10.984 225.147 10.792C224.667 10.552 224.043 10.216 223.275 9.784C221.883 9.064 220.683 8.536 219.675 8.2C218.667 7.816 217.419 7.624 215.931 7.624C214.155 7.624 212.739 7.984 211.683 8.704C210.675 9.424 210.171 10.408 210.171 11.656C210.171 12.856 210.699 13.768 211.755 14.392C212.811 15.016 214.851 15.64 217.875 16.264C221.091 16.936 223.611 17.704 225.435 18.568C227.259 19.432 228.555 20.512 229.323 21.808C230.139 23.104 230.547 24.76 230.547 26.776C230.547 30.04 229.179 32.656 226.443 34.624C223.755 36.592 220.155 37.576 215.643 37.576ZM327.484 37.576C323.98 37.576 320.884 36.832 318.196 35.344C315.556 33.856 313.516 31.744 312.076 29.008C310.636 26.272 309.916 23.08 309.916 19.432C309.916 15.784 310.66 12.568 312.148 9.784C313.684 6.952 315.82 4.768 318.556 3.232C321.292 1.696 324.436 0.927997 327.988 0.927997C329.86 0.927997 331.732 1.192 333.604 1.72C335.524 2.248 337.204 2.968 338.644 3.88C340.18 4.888 340.948 6.16 340.948 7.696C340.948 8.752 340.684 9.616 340.156 10.288C339.676 10.912 339.028 11.224 338.212 11.224C337.684 11.224 337.132 11.104 336.556 10.864C335.98 10.624 335.404 10.336 334.828 10C333.772 9.376 332.764 8.896 331.804 8.56C330.844 8.176 329.74 7.984 328.492 7.984C325.516 7.984 323.212 8.968 321.58 10.936C319.996 12.856 319.204 15.64 319.204 19.288C319.204 22.888 319.996 25.672 321.58 27.64C323.212 29.56 325.516 30.52 328.492 30.52C329.692 30.52 330.748 30.352 331.66 30.016C332.62 29.632 333.676 29.128 334.828 28.504C335.548 28.072 336.172 27.76 336.7 27.568C337.228 27.328 337.756 27.208 338.284 27.208C339.052 27.208 339.7 27.544 340.228 28.216C340.756 28.888 341.02 29.728 341.02 30.736C341.02 31.552 340.828 32.272 340.444 32.896C340.108 33.472 339.532 34 338.716 34.48C337.228 35.44 335.5 36.208 333.532 36.784C331.564 37.312 329.548 37.576 327.484 37.576ZM363.072 37.576C359.472 37.576 356.304 36.832 353.568 35.344C350.88 33.856 348.792 31.72 347.304 28.936C345.816 26.152 345.072 22.912 345.072 19.216C345.072 15.52 345.816 12.304 347.304 9.568C348.792 6.784 350.88 4.648 353.568 3.16C356.304 1.672 359.472 0.927997 363.072 0.927997C366.672 0.927997 369.816 1.672 372.504 3.16C375.24 4.648 377.328 6.784 378.768 9.568C380.256 12.304 381 15.52 381 19.216C381 22.912 380.256 26.152 378.768 28.936C377.328 31.72 375.24 33.856 372.504 35.344C369.816 36.832 366.672 37.576 363.072 37.576ZM363 30.592C365.928 30.592 368.16 29.632 369.696 27.712C371.232 25.792 372 22.96 372 19.216C372 15.52 371.232 12.712 369.696 10.792C368.16 8.824 365.952 7.84 363.072 7.84C360.192 7.84 357.96 8.824 356.376 10.792C354.84 12.712 354.072 15.52 354.072 19.216C354.072 22.96 354.84 25.792 356.376 27.712C357.912 29.632 360.12 30.592 363 30.592ZM430.262 0.927997C434.102 0.927997 437.03 2.08 439.046 4.384C441.11 6.64 442.142 10.312 442.142 15.4V33.112C442.142 34.504 441.71 35.584 440.846 36.352C440.03 37.072 438.95 37.432 437.606 37.432C436.31 37.432 435.23 37.072 434.366 36.352C433.55 35.584 433.142 34.504 433.142 33.112V15.4C433.142 12.76 432.662 10.888 431.702 9.784C430.79 8.632 429.374 8.056 427.454 8.056C425.102 8.056 423.23 8.872 421.838 10.504C420.446 12.088 419.75 14.272 419.75 17.056V33.112C419.75 34.504 419.318 35.584 418.454 36.352C417.638 37.072 416.582 37.432 415.286 37.432C413.99 37.432 412.91 37.072 412.046 36.352C411.182 35.584 410.75 34.504 410.75 33.112V15.4C410.75 12.76 410.27 10.888 409.31 9.784C408.398 8.632 406.982 8.056 405.062 8.056C402.71 8.056 400.838 8.872 399.446 10.504C398.102 12.088 397.43 14.272 397.43 17.056V33.112C397.43 34.504 396.998 35.584 396.134 36.352C395.27 37.072 394.19 37.432 392.894 37.432C391.598 37.432 390.518 37.072 389.654 36.352C388.838 35.584 388.43 34.504 388.43 33.112V5.248C388.43 3.904 388.862 2.872 389.726 2.152C390.59 1.432 391.67 1.072 392.966 1.072C394.214 1.072 395.222 1.432 395.99 2.152C396.806 2.824 397.214 3.808 397.214 5.104V6.832C398.318 4.912 399.782 3.448 401.606 2.44C403.478 1.432 405.614 0.927997 408.014 0.927997C413.294 0.927997 416.822 3.136 418.598 7.552C419.654 5.536 421.214 3.928 423.278 2.728C425.342 1.528 427.67 0.927997 430.262 0.927997Z" fill="white"/>
<path d="M255.868 2.92C256.764 2.92 257.5 3.176 258.076 3.688C258.652 4.2 258.94 4.872 258.94 5.704V34.408C258.94 35.272 258.668 35.96 258.124 36.472C257.58 36.984 256.86 37.24 255.964 37.24C255.068 37.24 254.348 36.984 253.804 36.472C253.26 35.96 252.988 35.272 252.988 34.408V33.208C252.284 34.52 251.26 35.544 249.916 36.28C248.604 37.016 247.1 37.384 245.404 37.384C243.388 37.384 241.58 36.872 239.98 35.848C238.412 34.824 237.18 33.384 236.284 31.528C235.42 29.64 234.988 27.48 234.988 25.048C234.988 22.616 235.42 20.488 236.284 18.664C237.18 16.84 238.412 15.432 239.98 14.44C241.548 13.448 243.356 12.952 245.404 12.952C247.1 12.952 248.604 13.304 249.916 14.008C251.228 14.712 252.236 15.704 252.94 16.984V5.608C252.94 4.808 253.196 4.168 253.708 3.688C254.252 3.176 254.972 2.92 255.868 2.92ZM246.988 32.728C248.908 32.728 250.38 32.072 251.404 30.76C252.46 29.448 252.988 27.576 252.988 25.144C252.988 22.712 252.46 20.856 251.404 19.576C250.38 18.264 248.924 17.608 247.036 17.608C245.116 17.608 243.628 18.248 242.572 19.528C241.516 20.808 240.988 22.648 240.988 25.048C240.988 27.48 241.516 29.368 242.572 30.712C243.628 32.056 245.1 32.728 246.988 32.728ZM275.816 37.384C273.416 37.384 271.304 36.888 269.48 35.896C267.688 34.904 266.296 33.48 265.304 31.624C264.312 29.768 263.816 27.608 263.816 25.144C263.816 22.68 264.312 20.536 265.304 18.712C266.296 16.856 267.688 15.432 269.48 14.44C271.304 13.448 273.416 12.952 275.816 12.952C278.216 12.952 280.312 13.448 282.104 14.44C283.928 15.432 285.32 16.856 286.28 18.712C287.272 20.536 287.768 22.68 287.768 25.144C287.768 27.608 287.272 29.768 286.28 31.624C285.32 33.48 283.928 34.904 282.104 35.896C280.312 36.888 278.216 37.384 275.816 37.384ZM275.768 32.728C277.72 32.728 279.208 32.088 280.232 30.808C281.256 29.528 281.768 27.64 281.768 25.144C281.768 22.68 281.256 20.808 280.232 19.528C279.208 18.216 277.736 17.56 275.816 17.56C273.896 17.56 272.408 18.216 271.352 19.528C270.328 20.808 269.816 22.68 269.816 25.144C269.816 27.64 270.328 29.528 271.352 30.808C272.376 32.088 273.848 32.728 275.768 32.728ZM304.773 32.824C306.373 32.92 307.173 33.64 307.173 34.984C307.173 35.752 306.853 36.344 306.213 36.76C305.605 37.144 304.725 37.304 303.573 37.24L302.277 37.144C296.901 36.76 294.213 33.88 294.213 28.504V18.04H291.813C290.949 18.04 290.277 17.848 289.797 17.464C289.349 17.08 289.125 16.52 289.125 15.784C289.125 15.048 289.349 14.488 289.797 14.104C290.277 13.72 290.949 13.528 291.813 13.528H294.213V9.112C294.213 8.248 294.485 7.56 295.029 7.048C295.573 6.536 296.309 6.28 297.237 6.28C298.133 6.28 298.853 6.536 299.397 7.048C299.941 7.56 300.213 8.248 300.213 9.112V13.528H304.293C305.157 13.528 305.813 13.72 306.261 14.104C306.741 14.488 306.981 15.048 306.981 15.784C306.981 16.52 306.741 17.08 306.261 17.464C305.813 17.848 305.157 18.04 304.293 18.04H300.213V28.936C300.213 31.304 301.301 32.568 303.477 32.728L304.773 32.824Z" fill="#EA9999"/>
</svg>
